<svg xmlns="http://www.w3.org/2000/svg" viewBox="0 0 512 512" height="1em" width="1em" fill="currentColor"><path d="M190.5 237.4h23.4l-11.8-31z"/><path d="M256 21.6C116 21.6 2.5 111.7 2.5 222.8c0 71.7 47.2 134.6 118.3 170.2l-21.5 97.4L205.9 420c16.2 2.6 33 3.9 50.1 3.9 140 0 253.5-90.1 253.5-201.2S396 21.6 256 21.6zM130.8 277.7c0 8-6.5 14.6-14.6 14.6h-1.8c-8 0-14.6-6.5-14.6-14.6v-87.6H76.7c-7.9 0-14.4-6.5-14.4-14.4v-.4c0-7.9 6.5-14.4 14.4-14.4h77.4c7.9 0 14.4 6.5 14.4 14.4v.4c0 7.9-6.5 14.4-14.4 14.4h-23.2v87.6zm119.1 13.5c-7.5 2.8-16-1-18.8-8.5l-6.1-16.1h-45.4l-6 16.1c-2.8 7.5-11.3 11.4-18.8 8.5-7.5-2.8-11.4-11.3-8.5-18.8l36.9-98.5c.3-.7.6-1.3.9-2 2.6-6.5 9-11.1 16.4-11.1h3.3c7.3 0 13.6 4.5 16.3 10.9.5.7.9 1.5 1.2 2.4l37.2 98.2c2.7 7.6-1.1 16.1-8.6 18.9zm93.4-13.3c0 7.9-6.5 14.3-14.3 14.3h-47.8c-7.9 0-14.3-6.5-14.3-14.3V175.4c0-8 6.6-14.6 14.6-14.6s14.6 6.6 14.6 14.6v84.5h33c7.9 0 14.3 6.5 14.3 14.3v3.7zm93.1 10.7c-6.5 4.7-15.7 3.2-20.4-3.3L383.9 241l-7.5 7.5v29.2c0 8-6.6 14.6-14.6 14.6s-14.6-6.6-14.6-14.6V175.5c0-8 6.6-14.6 14.6-14.6s14.6 6.6 14.6 14.6v31.8l40.2-40.2c5.7-5.7 15-5.7 20.6 0 5.7 5.7 5.7 15 0 20.6l-32.4 32.4 34.8 48.1c4.7 6.5 3.3 15.7-3.2 20.4z"/></svg>
