<svg width="1em" height="1em" viewBox="0 0 208 192" fill="currentColor" xmlns="http://www.w3.org/2000/svg">
  <path d="M76.01 89.49H87.99L82 72.47L76.01 89.49Z"/>
  <path d="M104 0C46.56 0 0 36.71 0 82C0 111.28 19.47 137 48.75 151.48C47.16 156.97 38.51 186.82 38.17 189.17C38.17 189.17 37.96 190.93 39.1 191.6C39.4814 191.792 39.8981 191.905 40.3245 191.931C40.751 191.957 41.1782 191.895 41.58 191.75C44.86 191.29 79.58 166.94 85.58 162.75C91.6832 163.598 97.8383 164.015 104 164C161.44 164 208 127.29 208 82C208 36.71 161.44 0 104 0ZM52.53 69.27C52.4 80.87 52.63 93.07 52.44 104.49C52.38 108.14 50.28 109.23 47.44 110.27C47.1191 110.383 46.7735 110.408 46.44 110.34C43.19 109.7 40.6 108.54 40.52 104.5C40.29 93.09 40.59 80.87 40.43 69.27C37.68 69.16 33.76 69.38 31.21 69.27C27.67 69.04 25.21 66.79 25.36 63.44C25.51 60.09 27.3 57.68 31.27 57.62C40.65 57.48 52.27 57.48 61.65 57.62C65.65 57.68 67.43 60.1 67.55 63.44C67.67 66.78 65.25 69.04 61.72 69.27C59.2 69.38 55.29 69.16 52.53 69.27ZM102.93 109.72C101.73 110.266 100.428 110.549 99.11 110.55C96.61 110.55 94.7 109.55 94.11 107.9L91.11 100.12H72.85L69.85 107.9C69.27 109.53 67.36 110.55 64.85 110.55C63.5351 110.55 62.2357 110.267 61.04 109.72C59.38 108.96 57.79 106.86 59.61 101.2L74 63.42C74.6035 61.7558 75.6843 60.3066 77.1073 59.2536C78.5302 58.2006 80.2321 57.5906 82 57.5C83.7665 57.6004 85.4651 58.2152 86.8866 59.2689C88.3081 60.3226 89.3903 61.769 90 63.43L104.34 101.19C106.17 106.86 104.58 109 102.93 109.72ZM133.25 109.72H114C112.509 109.75 111.067 109.187 109.99 108.157C108.912 107.126 108.287 105.711 108.25 104.22V63.5C108.314 61.9184 108.987 60.4228 110.129 59.3263C111.271 58.2299 112.792 57.6175 114.375 57.6175C115.958 57.6175 117.479 58.2299 118.621 59.3263C119.763 60.4228 120.436 61.9184 120.5 63.5V98.75H133.25C134 98.7047 134.752 98.8134 135.458 99.0694C136.165 99.3253 136.812 99.7231 137.359 100.238C137.906 100.753 138.342 101.375 138.64 102.065C138.938 102.755 139.092 103.498 139.092 104.25C139.092 105.002 138.938 105.745 138.64 106.435C138.342 107.125 137.906 107.747 137.359 108.262C136.812 108.777 136.165 109.175 135.458 109.431C134.752 109.687 134 109.795 133.25 109.75V109.72ZM180.25 105.2C180.094 106.384 179.588 107.494 178.798 108.388C178.007 109.283 176.968 109.921 175.813 110.222C174.657 110.523 173.438 110.472 172.312 110.076C171.186 109.68 170.203 108.957 169.49 108L155.42 89.37L153.34 91.45V104.54C153.34 106.131 152.708 107.657 151.583 108.783C150.457 109.908 148.931 110.54 147.34 110.54C145.749 110.54 144.223 109.908 143.097 108.783C141.972 107.657 141.34 106.131 141.34 104.54V63.54C141.34 61.9487 141.972 60.4226 143.097 59.2974C144.223 58.1721 145.749 57.54 147.34 57.54C148.931 57.54 150.457 58.1721 151.583 59.2974C152.708 60.4226 153.34 61.9487 153.34 63.54V76.4L170.08 59.66C170.518 59.2267 171.038 58.885 171.61 58.6549C172.182 58.4249 172.794 58.311 173.41 58.32C174.908 58.3593 176.339 58.9507 177.428 59.9806C178.517 61.0104 179.187 62.4062 179.31 63.9C179.364 64.5666 179.275 65.237 179.049 65.8664C178.823 66.4958 178.465 67.0698 178 67.55L164.3 81.22L179.07 100.79C180.026 102.059 180.44 103.656 180.22 105.23L180.25 105.2Z" />
</svg>
