<?xml version="1.0" encoding="utf-8"?>
<!-- Generator: Adobe Illustrator 24.2.1, SVG Export Plug-In . SVG Version: 6.00 Build 0)  -->
<svg version="1.1" xmlns="http://www.w3.org/2000/svg" xmlns:xlink="http://www.w3.org/1999/xlink" x="0px"
	 y="0px" viewBox="0 0 318.6 94.9" style="enable-background:new 0 0 318.6 94.9;" xml:space="preserve">
<style type="text/css">
	.st0{fill:#333333;}
	.st1{fill:#4A3517;}
	.st2{fill:#168356;}
</style>
<path class="st0" d="M21.4,94.3h-6.2c-3.9,0.1-7.2-2.9-7.3-6.8c0-0.2,0-0.3,0-0.5V66.9l-6-5.6v-1l6-5.5V36.9
	c-0.1-3.9,2.9-7.2,6.8-7.3c0.2,0,0.3,0,0.5,0h6.2v4.3h-1.7c-0.8,0-1.4,0-1.8,0c-3.4,0-5,1.2-5,3.7v16.5c0,1.5-0.7,2.9-1.8,3.9
	c-1.2,0.9-2.4,1.9-3.6,2.8l3.6,2.8c1.1,1,1.7,2.4,1.8,3.9v18.9c0,2.4,1.7,3.7,5,3.7c0.4,0,1,0,1.8,0s1.4-0.1,1.7-0.1V94.3z"/>
<path class="st0" d="M316.7,61.3l-6,5.6V87c0.1,3.9-3,7.2-6.9,7.3c-0.1,0-0.2,0-0.4,0h-6.2V90c0.3,0,0.9,0,1.7,0.1s1.4,0,1.8,0
	c3.4,0,5.1-1.2,5.1-3.7V67.5c0-1.5,0.6-2.9,1.8-3.9c1.2-1,2.4-1.9,3.6-2.8c-1.2-1-2.4-1.9-3.6-2.8c-1.1-1-1.7-2.4-1.8-3.9V37.5
	c0-2.5-1.7-3.7-5.1-3.7c-0.4,0-1,0-1.8,0h-1.7v-4.2h6.2c3.9-0.1,7.2,3,7.3,7c0,0.1,0,0.2,0,0.4v17.8l6,5.5V61.3z"/>
<path class="st0" d="M48.5,33.3H34.8v57.3h13.6c3,0.1,5.9-1,8-3.1c2.1-2.1,3.3-4.9,3.2-7.9V44.3c0.1-3-1.1-5.8-3.2-7.9
	C54.4,34.3,51.5,33.2,48.5,33.3z M52.7,44.7v34.4c0.1,1.4-0.4,2.8-1.5,3.8c-1.1,1-2.5,1.5-4,1.4h-5.5V39.6h5.8
	c1.4-0.1,2.7,0.4,3.7,1.3C52.3,42,52.8,43.3,52.7,44.7z"/>
<polygon class="st0" points="73.2,64.7 85,64.7 85,58.3 73.2,58.3 73.2,39.6 86.2,39.6 86.2,33.3 66.2,33.3 66.2,90.6 86.4,90.6 
	86.4,84.2 73.2,84.2 "/>
<polygon class="st0" points="102.8,73.3 96.6,33.3 89.7,33.3 99.6,90.7 105.9,90.7 115.8,33.3 109.1,33.3 "/>
<polygon class="st0" points="127.2,64.7 139.1,64.7 139.1,58.3 127.2,58.3 127.2,39.6 140.3,39.6 140.3,33.3 120.3,33.3 120.3,90.6 
	140.5,90.6 140.5,84.2 127.2,84.2 "/>
<polygon class="st1" points="153.1,26.7 146.1,26.7 146.1,90.6 165.8,90.6 165.8,84.2 153.1,84.2 "/>
<path class="st0" d="M190.9,33.3h-15.5c-2.6-0.1-4.8,1.9-4.9,4.6c0,0.1,0,0.2,0,0.4v47.5c-0.1,2.6,1.9,4.8,4.6,4.9
	c0.1,0,0.2,0,0.4,0h15.5c1.3,0,2.6-0.5,3.5-1.4c0.9-0.9,1.4-2.2,1.4-3.5V38.2c0-1.3-0.5-2.6-1.4-3.5
	C193.5,33.8,192.2,33.3,190.9,33.3z M188.9,39.6v44.6h-11.5V39.6L188.9,39.6z"/>
<path class="st0" d="M221.7,33.3h-18.9v57.3h6.9V68.7h12c2.7,0.1,4.9-2,5-4.6c0-0.1,0-0.3,0-0.4V38.2c0-1.3-0.5-2.6-1.4-3.5
	C224.3,33.8,223,33.3,221.7,33.3z M219.7,39.6v22.6h-10V39.6L219.7,39.6z"/>
<polygon class="st0" points="239.3,64.7 251.2,64.7 251.2,58.3 239.3,58.3 239.3,39.6 252.3,39.6 252.3,33.3 232.4,33.3 232.4,90.6 
	252.6,90.6 252.6,84.2 239.3,84.2 "/>
<path class="st0" d="M283.7,89.3c-3-8.4-6-16.8-9-25.1c0.7,0,1.2,0,1.6,0c5.5,0,6.4-3.1,6.4-5v-21c0.1-2.6-2-4.8-4.6-4.9
	c-0.1,0-0.2,0-0.3,0h-19.5v57.4h6.9V39.6h10.6V58h-8.3l-1.3,1.8l10.7,30.8h7.3L283.7,89.3z"/>
<path class="st2" d="M170.7,6.3c-0.4,0-0.9,0-1.3,0H169c-7.8,0.1-14.9,4.3-18.8,11C146.7,7.4,137.5,0.8,127,0.6h-0.4
	c-0.4,0-0.9,0-1.3,0h-0.7l-0.1,0.6c-0.1,0.6-0.1,1.1-0.2,1.7s0,0.8,0,1.3c0,13,10.6,23.6,23.6,23.6h1.2l1.6-0.1
	c10.1-1.2,18.2-8.8,20.2-18.8c0.1-0.5,0.2-1.1,0.3-1.6l0.1-0.8L170.7,6.3z"/>
</svg>
