<svg xmlns="http://www.w3.org/2000/svg" viewBox="0 0 44 38" height="1em" width="1em"><path d="M33.33 7.76L20.67.88a6.17 6.17 0 0 0-5.34 0L2.67 7.76A5.63 5.63 0 0 0 0 12.25v13.51a5.66 5.66 0 0 0 2.67 4.49l12.66 6.88a6.24 6.24 0 0 0 5.34 0l12.66-6.88A5.66 5.66 0 0 0 36 25.76V12.25a5.63 5.63 0 0 0-2.67-4.49zm-20.62 15.6a1.15 1.15 0 0 1 .3.86 1.23 1.23 0 0 1-.21.73.58.58 0 0 1-.47.31.73.73 0 0 1-.45-.22l-5.45-4.7a1.17 1.17 0 0 1-.42-1v-.79a1.2 1.2 0 0 1 .42-1l5.45-4.71a.64.64 0 0 1 .45-.22.59.59 0 0 1 .47.3 1.27 1.27 0 0 1 .21.74 1.07 1.07 0 0 1-.3.83L7.61 19zm8.75-10.6l-5.62 13.93a.44.44 0 0 1-.42.31.69.69 0 0 1-.51-.27 1 1 0 0 1-.23-.69 2.23 2.23 0 0 1 .16-.8l5.63-13.91a.45.45 0 0 1 .43-.33.7.7 0 0 1 .5.26 1 1 0 0 1 .23.68 2.23 2.23 0 0 1-.17.82zm8.73 6.62a1.19 1.19 0 0 1-.4 1L24.33 25a.73.73 0 0 1-.45.22.59.59 0 0 1-.47-.29 1.22 1.22 0 0 1-.21-.74 1 1 0 0 1 .31-.84L28.6 19l-5.09-4.4a1.14 1.14 0 0 1-.31-.87 1.22 1.22 0 0 1 .21-.74.59.59 0 0 1 .47-.29.68.68 0 0 1 .45.22l5.46 4.71a1.22 1.22 0 0 1 .4 1z" fill="#fff"/><ellipse cx="35.5" cy="8.6" rx="8.5" ry="8.6" fill="#e03131"/><path d="M33.19 4.51a.4.4 0 0 1 .21-.37.92.92 0 0 1 .47-.14h2.32a4.43 4.43 0 0 1 .9.09 2 2 0 0 1 .77.33 1.57 1.57 0 0 1 .53.65 2.28 2.28 0 0 1 .21 1 2.48 2.48 0 0 1-.27 1.22 1.5 1.5 0 0 1-.75.68 3.36 3.36 0 0 1 .5.26 1.56 1.56 0 0 1 .39.38 1.74 1.74 0 0 1 .25.55 2.91 2.91 0 0 1 .09.77v.25a3.43 3.43 0 0 1-.18 1.19 2.34 2.34 0 0 1-.51.79 1.86 1.86 0 0 1-.76.43 3.26 3.26 0 0 1-1 .14h-2.49a.78.78 0 0 1-.5-.15.41.41 0 0 1-.18-.33zm1.54 2.91h1.35a.84.84 0 0 0 .72-.29 1.12 1.12 0 0 0 .2-.74 1 1 0 0 0-.26-.74.93.93 0 0 0-.71-.27h-1.3zm1.36 4a1.19 1.19 0 0 0 .86-.31 1.41 1.41 0 0 0 .3-1v-.19a1.33 1.33 0 0 0-.3-1 1.22 1.22 0 0 0-.86-.28h-1.36v2.77z" fill="#fff"/></svg>
